<svg xmlns="http://www.w3.org/2000/svg" width="65" height="65" viewBox="278.238 278.238 65 65"><path fill="#E01212" d="M324.12 342.852l-17.308-11.648-18.988 8.312 5.242-20.818-13.425-16.318 20.55-1.22 10.69-18.397 7.46 20.064 20.03 4.948-15.94 13.62"/><path d="M324.342 343.238l-18.093-11.12.962.09-18.665 9.112-3.692 1.803 1.162-4.105 5.844-20.65.26 1.182-12.952-16.744-.75-.968 1.188-.108 20.514-1.87-.995.625 10.157-18.735 1.9-3.51 1.44 3.816 7.558 20.025-1.387-1.26 20.056 4.843 4.363 1.054-3.527 2.745-16.53 12.862.415-1.023.772 21.938zm-.488-.847l-2.563-20.896-.068-.568.484-.455 15.348-14.377.84 3.8-20.01-5.055-1.02-.257-.365-1.003-7.364-20.105 3.34.307-11.22 18.058-.378.608-.618.017-20.584.57.438-1.077 13.897 15.893.418.475-.156.707-4.638 20.984-2.53-2.304 19.307-7.51.552-.213.412.3 16.48 12.1z"/></svg>