<?xml version="1.0" encoding="utf-8"?>
<!-- Generator: Adobe Illustrator 16.0.0, SVG Export Plug-In . SVG Version: 6.00 Build 0)  -->
<!DOCTYPE svg PUBLIC "-//W3C//DTD SVG 1.1//EN" "http://www.w3.org/Graphics/SVG/1.1/DTD/svg11.dtd">
<svg version="1.1" id="Layer_1" xmlns="http://www.w3.org/2000/svg" xmlns:xlink="http://www.w3.org/1999/xlink" x="0px" y="0px"
	 width="65px" height="65px" viewBox="278.238 278.238 65 65" enable-background="new 278.238 278.238 65 65" xml:space="preserve">
<g>
	<polygon fill="#E01212" points="324.121,342.852 306.812,331.204 287.824,339.516 293.066,318.698 279.641,302.38 300.19,301.16 
		310.879,282.763 318.339,302.827 338.369,307.775 322.431,321.395 	"/>
	<path d="M324.342,343.238l-18.093-11.12l0.963,0.089l-18.665,9.113l-3.692,1.803l1.162-4.105l5.844-20.651l0.26,1.183
		l-12.953-16.744l-0.749-0.968l1.187-0.108l20.514-1.87l-0.995,0.625l10.157-18.735l1.901-3.509l1.44,3.815l7.557,20.025
		l-1.387-1.261l20.056,4.843l4.364,1.054l-3.527,2.745l-16.53,12.862l0.415-1.023L324.342,343.238z M323.854,342.391l-2.563-20.897
		l-0.069-0.568l0.484-0.455l15.348-14.378l0.839,3.8l-20.009-5.055l-1.019-0.257l-0.366-1.004l-7.363-20.105l3.341,0.307
		l-11.221,18.059l-0.378,0.608l-0.618,0.017l-20.584,0.569l0.438-1.076l13.897,15.893l0.417,0.476l-0.156,0.707l-4.638,20.984
		l-2.531-2.304l19.308-7.51l0.551-0.213l0.412,0.301L323.854,342.391z"/>
</g>
</svg>
